<?xml version="1.0" encoding="UTF-8"?>
<svg version="1.1" xmlns="http://www.w3.org/2000/svg" width="960" height="300">
<path d="M0 0 C13.50979582 -0.04658368 27.01957216 -0.08200041 40.5294323 -0.10362434 C46.80431861 -0.11400891 53.07914948 -0.12806947 59.35400391 -0.15087891 C65.42298036 -0.17279892 71.49190388 -0.18460855 77.5609169 -0.18975449 C79.86265011 -0.19341616 82.16438082 -0.20056515 84.46609116 -0.21146011 C133.3035751 -0.43318522 133.3035751 -0.43318522 151.28125 16.09765625 C160.73454782 26.09769331 165.02882287 38.33352882 165.375 52 C164.82113142 71.47061094 155.27790013 88.28207805 141.41552734 101.51220703 C134.4989857 107.87092949 127.11125456 113.23727939 119 118 C119.6290625 118.3403125 120.258125 118.680625 120.90625 119.03125 C133.08410465 125.9271436 138.78511799 133.51609806 143.25 146.6875 C147.85492865 167.02593485 144.55325704 186.15160219 134 204 C119.47696665 226.6956909 97.10360611 238.42628742 71.49609375 244.55444336 C63.54699457 245.97337 55.73844603 246.13942151 47.68725586 246.11352539 C46.48625244 246.11367142 45.28524902 246.11381744 44.04785156 246.1139679 C40.78194227 246.11339402 37.51607682 246.10840743 34.25017619 246.10139394 C30.82690674 246.09510744 27.40363627 246.09455243 23.98036194 246.09336853 C17.51015626 246.09027075 11.03996764 246.08207844 4.56976944 246.07201904 C-2.80151793 246.06080949 -10.17280615 246.05533529 -17.54409993 246.05032361 C-32.6960761 246.03989441 -47.84803633 246.02232526 -63 246 C-62.41164586 239.4219232 -61.22603345 233.29875755 -59.53833008 226.92114258 C-59.28757217 225.95318253 -59.03681427 224.98522247 -58.77845764 223.9879303 C-57.94806376 220.78855889 -57.10881495 217.59158105 -56.26953125 214.39453125 C-55.67617808 212.11551595 -55.08339109 209.83635317 -54.49113464 207.55705261 C-52.92214986 201.5248885 -51.34571974 195.49469478 -49.76763916 189.46490479 C-48.21912376 183.54345868 -46.67708995 177.62032672 -45.13476562 171.69726562 C-42.9892543 163.45997217 -40.84159361 155.22324499 -38.69125175 146.98721123 C-34.46852748 130.81228587 -30.26752357 114.63179155 -26.07421875 98.44921875 C-25.60952651 96.65593612 -25.60952651 96.65593612 -25.13544655 94.82642555 C-23.42307846 88.21776008 -21.71127597 81.60894835 -20 75 C-25.61 74.67 -31.22 74.34 -37 74 C-36.1992031 69.9960155 -35.60117205 67.86315582 -33.76953125 64.4296875 C-33.30337402 63.54700195 -32.8372168 62.66431641 -32.35693359 61.75488281 C-31.59243896 60.32934082 -31.59243896 60.32934082 -30.8125 58.875 C-29.71689955 56.80497764 -28.6218712 54.73465241 -27.52734375 52.6640625 C-26.66278564 51.03452637 -26.66278564 51.03452637 -25.78076172 49.37207031 C-22.77652031 43.68320517 -19.82833073 37.96541215 -16.875 32.25 C-12.87171793 24.50555194 -8.8367975 16.77875278 -4.77392578 9.06542969 C-4.31329239 8.19058929 -3.852659 7.3157489 -3.37806702 6.41439819 C-2.25219702 4.27618518 -1.12617128 2.13805434 0 0 Z M53 66 C51.99738393 70.19788338 51.00064571 74.39710611 50.00927734 78.59765625 C49.67136357 80.02577122 49.33186021 81.45351105 48.99072266 82.88085938 C48.50002088 84.93522601 48.0150938 86.99088384 47.53125 89.046875 C47.23798828 90.28276367 46.94472656 91.51865234 46.64257812 92.79199219 C45.86906458 96.10839373 45.86906458 96.10839373 46 100 C67.31142771 101.3472264 67.31142771 101.3472264 85.6171875 92.46484375 C90.60288215 87.22867162 92.05873997 82.4656582 91.9375 75.3125 C90.79541111 71.27711925 89.23237831 69.6166872 86 67 C82.52217417 65.84072472 79.81196743 65.88686934 76.14453125 65.90234375 C75.48289474 65.9037587 74.82125824 65.90517365 74.13957214 65.90663147 C72.03050172 65.91222004 69.92153823 65.92477035 67.8125 65.9375 C66.38086091 65.94251648 64.94922015 65.94707913 63.51757812 65.95117188 C60.01168412 65.9621857 56.5058525 65.97944245 53 66 Z M34 144 C29.73148862 158.78972436 29.73148862 158.78972436 25.625 173.625 C25.14933594 175.37683594 25.14933594 175.37683594 24.6640625 177.1640625 C23.88600366 180.00139003 23.88600366 180.00139003 24 183 C28.03426587 183.10051836 32.06802545 183.17222514 36.10327148 183.21972656 C37.4696119 183.23957267 38.83587059 183.26665914 40.2019043 183.30175781 C51.43528754 183.58269568 62.55431364 182.93450252 71.625 175.625 C76.12117623 171.18561757 78.74941483 166.38992182 79 160 C77.9430311 153.75938574 75.66275994 149.99691574 70.71875 146.09375 C66.87299672 143.64645246 63.08698748 143.86931678 58.70703125 143.90234375 C58.00100266 143.9037587 57.29497406 143.90517365 56.56755066 143.90663147 C54.31582374 143.91222236 52.06419679 143.92477312 49.8125 143.9375 C48.28450665 143.94251618 46.75651173 143.94707888 45.22851562 143.95117188 C41.48563865 143.9621888 37.74283627 143.97944713 34 144 Z " fill="#005FAF" transform="translate(404,25)"/>
<path d="M0 0 C38.94 0 77.88 0 118 0 C120.30174526 41.43141461 120.30174526 41.43141461 120.96142578 56.78027344 C121.04037103 58.57913939 121.11948942 60.37799776 121.19876099 62.17684937 C121.40735515 66.92402125 121.61324132 71.67130617 121.81822062 76.41863537 C121.94741744 79.4080805 122.07722118 82.39749871 122.20721054 85.38690948 C122.66340998 95.87958511 123.11723219 106.37236049 123.56884766 116.86523438 C123.98583186 126.55188015 124.40838645 136.23827249 124.83342373 145.92456794 C125.20235019 154.33817916 125.56722159 162.75196026 125.92907703 171.16587853 C126.14347833 176.14949113 126.3594161 181.13302404 126.57956314 186.11638641 C126.78612819 190.79516942 126.9875547 195.47414825 127.18537521 200.15330887 C127.25775865 201.84619667 127.33182151 203.53901387 127.40791321 205.23173904 C128.01818895 218.84548676 128 232.34692432 128 246 C101.93 246 75.86 246 49 246 C49 232.14 49 218.28 49 204 C31.84 204.33 14.68 204.66 -3 205 C-8.55233607 218.11789657 -8.55233607 218.11789657 -14.09936523 231.23803711 C-14.79391491 232.87622123 -15.48864521 234.51432879 -16.18359375 236.15234375 C-16.54553833 237.01089966 -16.90748291 237.86945557 -17.28039551 238.75402832 C-17.62542114 239.56601685 -17.97044678 240.37800537 -18.32592773 241.21459961 C-18.6257103 241.9229747 -18.92549286 242.63134979 -19.23435974 243.3611908 C-20 245 -20 245 -21 246 C-23.64738089 246.09511266 -26.26859001 246.12555635 -28.91625977 246.11352539 C-29.74545929 246.11367142 -30.57465881 246.11381744 -31.4289856 246.1139679 C-34.18315198 246.11326851 -36.93725161 246.10547493 -39.69140625 246.09765625 C-41.59569766 246.09579216 -43.49998955 246.09436822 -45.40428162 246.09336853 C-50.42667963 246.08954263 -55.44904892 246.07971173 -60.47143555 246.06866455 C-65.5922812 246.05845198 -70.71313148 246.05387124 -75.83398438 246.04882812 C-85.88933557 246.03808953 -95.9446654 246.02101224 -106 246 C-105.25997815 241.93168386 -104.06028348 238.75870036 -102.19140625 235.0546875 C-101.60810547 233.89324219 -101.02480469 232.73179687 -100.42382812 231.53515625 C-99.80339204 230.3151008 -99.18294934 229.09504871 -98.5625 227.875 C-97.69334961 226.14443359 -97.69334961 226.14443359 -96.80664062 224.37890625 C-93.34566216 217.50389714 -89.78498079 210.6851747 -86.18359375 203.8828125 C-80.784263 193.67325585 -75.63291323 183.34540651 -70.5 173 C-65.44146276 162.80449859 -60.36936602 152.62500297 -55.03515625 142.5703125 C-49.48067482 132.09884678 -44.20739055 121.49180751 -38.9375 110.875 C-32.45805731 97.82177016 -25.87533933 84.84991772 -19 72 C-25.27 71.67 -31.54 71.34 -38 71 C-27.19523519 48.94945956 -15.40265975 27.41513971 -3.18237305 6.12109375 C-2.06268245 4.11244789 -1.02843232 2.05686465 0 0 Z M48 79 C45.29493837 85.32593102 42.59357631 91.65343323 39.89453125 97.98193359 C38.97997583 100.1251827 38.06463833 102.26809829 37.1484375 104.41064453 C31.24995911 118.20609893 25.51891714 132.04797117 20 146 C29.9 146 39.8 146 50 146 C49.505 112.835 49.505 112.835 49 79 C48.67 79 48.34 79 48 79 Z " fill="#005FAF" transform="translate(832,25)"/>
<path d="M0 0 C10.08171462 4.96732779 20.08886236 10.07849152 30.07931519 15.22631836 C31.48049416 15.94823556 32.88196152 16.66959329 34.28372192 17.39038086 C36.28773177 18.42122633 38.29051991 19.45440735 40.29296875 20.48828125 C42.04903442 21.39380737 42.04903442 21.39380737 43.84057617 22.31762695 C46.61956795 23.79742236 49.31930164 25.35031527 52 27 C50.5518455 30.82644949 48.80988022 34.37703558 46.875 37.98046875 C46.25584717 39.13571045 45.63669434 40.29095215 44.9987793 41.48120117 C44.33273164 42.71674848 43.66646738 43.95217905 43 45.1875 C42.31612007 46.45871762 41.63228247 47.72995801 40.94848633 49.0012207 C32.59393569 64.51500889 24.00944168 79.85647038 15 95 C11.47973317 94.2245196 9.4410482 93.0114584 6.5625 90.8125 C-11.3649129 78.04085402 -32.5618856 74.44266279 -54.09375 77.5078125 C-71.61347617 80.87997218 -87.5000031 89.44123387 -98.16015625 103.9375 C-106.86844497 117.21967494 -112.11997412 133.06315006 -109.50390625 149.02734375 C-106.55470949 161.97381766 -100.9015542 172.26797432 -89.75 179.75 C-74.23987757 189.05183572 -55.53141028 191.66709407 -37.94482422 187.61352539 C-24.82386188 184.23445403 -12.05277902 178.87007903 -0.53125 171.71484375 C0.22671875 171.36099609 0.22671875 171.36099609 1 171 C1.66 171.33 2.32 171.66 3 172 C2.32305522 173.43850766 1.64610981 174.87701502 0.96916199 176.31552124 C0.35189353 177.6272232 -0.26536478 178.93892993 -0.88261414 180.25064087 C-2.64261994 183.99077127 -4.40281527 187.73081229 -6.16333008 191.47070312 C-9.56325166 198.69369138 -12.96214827 205.91714941 -16.35421753 213.14382935 C-17.78737065 216.19694356 -19.22141496 219.24963882 -20.65551758 222.30230713 C-21.33630016 223.75209056 -22.01664827 225.20207811 -22.6965332 226.65228271 C-23.02161865 227.34565735 -23.3467041 228.03903198 -23.68164062 228.75341797 C-23.99758179 229.42806595 -24.31352295 230.10271393 -24.63903809 230.79780579 C-25.25363236 232.10131162 -25.87383782 233.40218928 -26.50012207 234.70011902 C-27.83222898 237.46305391 -29.07648838 240.20347912 -30.15625 243.07592773 C-31.68110066 246.91058058 -32.66565361 249.33886007 -36.45678711 251.21728516 C-39.51145306 252.08033069 -42.48323367 252.61450027 -45.625 253.0625 C-46.65496094 253.24748047 -47.68492187 253.43246094 -48.74609375 253.62304688 C-82.5093604 259.46260557 -120.23831746 256.57063473 -149.34765625 237.00390625 C-170.39254591 221.1040117 -182.73804093 199.85959866 -187.55859375 174.00390625 C-189.9136505 156.4532399 -188.70055001 138.02863119 -184 121 C-183.67257812 119.76378906 -183.34515625 118.52757812 -183.0078125 117.25390625 C-177.41804446 98.62814633 -168.04356133 81.20227315 -156 66 C-155.50886719 65.37802734 -155.01773438 64.75605469 -154.51171875 64.11523438 C-128.28415137 31.34807565 -90.73168913 10.254649 -49 5 C-47.72576172 4.83371094 -47.72576172 4.83371094 -46.42578125 4.6640625 C-34.66872903 3.36358139 -22.78806746 2.83312387 -11.41796875 6.44140625 C-8.64474587 7.08207002 -7.56335767 7.24390834 -5 6 C-3.16237607 4.09567346 -1.61513861 2.10865319 0 0 Z " fill="#005FAF" transform="translate(745,23)"/>
<path d="M0 0 C10.83432124 8.28413744 16.77366189 17.54346082 19 31 C20.06387268 45.78957428 17.14989684 58.11526314 8 70 C5.29604526 73.09945856 2.5202058 76.11338588 -0.296875 79.109375 C-24.45883101 104.94730483 -25.18686774 134.94446992 -25.625 168.6875 C-25.66328786 171.15430902 -25.70234535 173.62110622 -25.7421875 176.08789062 C-25.83697716 182.05848688 -25.92234544 188.02915754 -26 194 C-27.98 194 -29.96 194 -32 194 C-32.15309117 191.31276132 -32.29847916 188.62549081 -32.4375 185.9375 C-32.48406738 185.03862061 -32.53063477 184.13974121 -32.57861328 183.21362305 C-32.89132741 176.66093704 -33.06975036 170.1131507 -33.18359375 163.5546875 C-33.21611376 161.85424587 -33.24874848 160.15380644 -33.28149414 158.45336914 C-33.33005973 155.91273109 -33.37431637 153.37245339 -33.40328979 150.83151245 C-33.50614937 141.89077063 -33.91053147 133.15873387 -35.36328125 124.32421875 C-35.48017303 123.61147293 -35.59706482 122.89872711 -35.71749878 122.16438293 C-38.71652933 105.49993074 -46.48755533 92.21811115 -58 80 C-69.10279399 67.90875851 -77.8593373 55.56613582 -78.03515625 38.609375 C-77.44378654 25.51269948 -73.93465626 14.78483982 -65 5 C-47.10254641 -10.93897803 -20.12200356 -12.75026326 0 0 Z " fill="#005FAF" transform="translate(178,35)"/>
<path d="M0 0 C1.01823853 0.00215515 2.03647705 0.0043103 3.08557129 0.00653076 C17.7004092 0.05620203 32.01633245 0.33602401 46.375 3.3125 C47.40882813 3.52181152 48.44265625 3.73112305 49.5078125 3.94677734 C69.45417124 8.07210007 88.66705987 13.80638758 107.546875 21.4453125 C110.47144445 22.62266256 113.11863688 23.49309753 116.203125 24.2421875 C121.11193058 25.64968863 124.11403775 27.26129576 126.84912109 31.71044922 C130.73618915 39.29801636 133.58906307 47.26953445 136.375 55.3125 C136.76059082 56.40288574 137.14618164 57.49327148 137.54345703 58.61669922 C144.66619626 78.97583623 149.69839643 99.90198684 152.375 121.3125 C152.47071289 122.07232178 152.56642578 122.83214355 152.66503906 123.61499023 C155.26062265 147.60088048 154.83085974 173.62930029 150.375 197.3125 C150.18695801 198.34310547 149.99891602 199.37371094 149.80517578 200.43554688 C146.55308223 217.74899959 141.60027072 234.37535541 135.58056641 250.89990234 C134.48074907 254.01315605 133.51431597 257.13659078 132.57421875 260.30078125 C130.06123192 267.9865057 127.55033187 273.4939146 120.24609375 277.50390625 C114.13664688 280.34513295 107.8043875 282.33676633 101.375 284.3125 C99.52457889 284.94904996 97.67676002 285.59323089 95.83203125 286.24609375 C86.18754388 289.58572214 76.36068989 292.19256166 66.4375 294.5625 C65.47537598 294.79678711 64.51325195 295.03107422 63.52197266 295.27246094 C44.87889611 299.52102211 26.2230678 300.81076864 7.14941406 300.70361328 C3.74503755 300.68747648 0.34184187 300.7036021 -3.0625 300.72265625 C-16.82902437 300.73645547 -30.08007527 299.79010499 -43.625 297.3125 C-44.82366699 297.09352051 -46.02233398 296.87454102 -47.25732422 296.64892578 C-50.27150515 296.05168436 -53.25958504 295.39360856 -56.25 294.6875 C-57.86032104 294.30899902 -57.86032104 294.30899902 -59.50317383 293.92285156 C-71.00376999 291.11835678 -82.21523947 287.55442815 -93.33544922 283.50683594 C-95.52846309 282.71061923 -97.72815909 281.93257181 -99.93408203 281.17285156 C-119.8098778 274.25460875 -119.8098778 274.25460875 -124 265.75 C-124.72050442 263.75329267 -125.33458717 261.75465637 -125.90869141 259.7109375 C-126.7376932 256.935166 -127.75065921 254.26534085 -128.79296875 251.5625 C-135.28813216 234.58653504 -140.39486495 217.34126134 -143.875 199.5 C-144.02622314 198.7255957 -144.17744629 197.95119141 -144.33325195 197.15332031 C-147.27370862 181.10118309 -148.03159858 165.29226053 -148 149 C-147.99945618 147.94279755 -147.99891235 146.88559509 -147.99835205 145.7963562 C-147.95865717 128.97985966 -147.0800445 112.81993483 -143.625 96.3125 C-143.41601074 95.27303223 -143.20702148 94.23356445 -142.99169922 93.16259766 C-139.83528084 77.79190411 -135.24239182 62.97345196 -129.73779297 48.28759766 C-129.02094294 46.37106968 -128.31828676 44.44914226 -127.63330078 42.52099609 C-122.19484686 27.31080484 -122.19484686 27.31080484 -115.6875 23.75 C-114.05674731 23.13923891 -112.42147276 22.53656748 -110.76123047 22.01123047 C-108.15910581 21.16011267 -105.62054346 20.17717621 -103.06640625 19.19140625 C-82.4387758 11.34287619 -61.47588276 5.50894173 -39.625 2.3125 C-38.41875977 2.13372314 -37.21251953 1.95494629 -35.96972656 1.77075195 C-23.9882441 0.11598835 -12.08015352 -0.0459948 0 0 Z M-100.625 26.3125 C-101.89450555 26.73534735 -103.16403719 27.15811638 -104.43359375 27.58081055 C-110.44674893 29.77964502 -114.86136632 31.4083261 -117.8984375 37.26953125 C-118.65321683 39.20102039 -119.3518222 41.15517573 -120 43.125 C-120.38953857 44.17816406 -120.77907715 45.23132812 -121.18041992 46.31640625 C-122.38550149 49.63142388 -123.50932769 52.96646215 -124.625 56.3125 C-125.36237085 58.41047645 -126.10063455 60.50813933 -126.83984375 62.60546875 C-131.64402025 76.59335613 -135.15880934 90.73521024 -137.625 105.3125 C-137.78871094 106.26962891 -137.95242187 107.22675781 -138.12109375 108.21289062 C-146.04457439 156.76876576 -138.47951373 206.77618693 -120.41162109 252.24121094 C-119.7120995 254.08315422 -119.12304936 255.96619921 -118.55078125 257.8515625 C-116.2940383 264.10709559 -113.24421515 266.97794677 -107.43774414 269.87719727 C-102.91119886 271.90996572 -98.29268485 273.6340285 -93.625 275.3125 C-92.5848877 275.69535156 -91.54477539 276.07820313 -90.47314453 276.47265625 C-23.95459223 300.6939227 45.12442791 298.7483001 110.8125 272.6875 C111.52905762 272.41043213 112.24561523 272.13336426 112.98388672 271.84790039 C118.05505895 269.77008571 120.21065944 267.7621357 122.53833008 262.86499023 C122.90337646 261.95950439 123.26842285 261.05401855 123.64453125 260.12109375 C124.05541992 259.10418457 124.46630859 258.08727539 124.88964844 257.03955078 C125.53208496 255.41122314 125.53208496 255.41122314 126.1875 253.75 C126.63254883 252.62319824 127.07759766 251.49639648 127.53613281 250.33544922 C152.90334851 185.33080595 151.116164 118.3900939 127.375 53.3125 C127.03210938 52.33313477 126.68921875 51.35376953 126.3359375 50.34472656 C122.63724902 39.36497145 122.63724902 39.36497145 114.375 31.75 C112.74999528 31.14139167 111.12102019 30.53984553 109.46826172 30.01123047 C106.93819312 29.16669393 104.48008997 28.18282272 102.00390625 27.19140625 C80.59279155 18.7159535 59.06848944 13.12714029 36.375 9.3125 C35.60752441 9.17827637 34.84004883 9.04405273 34.04931641 8.90576172 C-11.12686985 1.29612693 -58.26836307 10.70850813 -100.625 26.3125 Z " fill="#005FAF" transform="translate(147.625,-0.3125)"/>
<path d="M0 0 C9.11764524 6.46555451 15.48303657 15.61808478 17.6171875 26.64453125 C18.51270851 37.63501632 17.47843397 47.16698253 10.4921875 56.01953125 C3.40548688 63.20940763 -6.04912504 65.64362488 -15.5703125 68.08203125 C-35.29890319 73.39546715 -52.26941347 79.09154945 -63.87890625 96.9453125 C-67.54054316 103.4102204 -68.65516441 110.15513079 -69.8046875 117.3984375 C-70.3828125 120.64453125 -70.3828125 120.64453125 -71.3828125 121.64453125 C-73.04898365 121.68516957 -74.71669345 121.68725225 -76.3828125 121.64453125 C-77.84939423 110.69754622 -77.53939123 99.66001181 -77.3828125 88.64453125 C-77.37024414 87.5054834 -77.35767578 86.36643555 -77.34472656 85.19287109 C-76.94726998 55.55802147 -72.28929174 30.46054187 -51.4453125 8.20703125 C-36.77514993 -5.60366725 -18.33620312 -10.43059423 0 0 Z " fill="#005FAF" transform="translate(232.3828125,106.35546875)"/>
<path d="M0 0 C18.94125796 13.39584557 29.61371455 33.90953698 33.5625 56.4375 C34.66051287 63.46691539 34.69114191 70.36278581 34.66015625 77.46875 C34.6587413 78.70040894 34.65732635 79.93206787 34.65586853 81.2010498 C34.65029612 85.11322516 34.63774867 89.02534211 34.625 92.9375 C34.61941482 95.5989575 34.61541916 98.26041444 34.61132812 100.921875 C34.60033572 107.42710307 34.58362514 113.93229736 34.5625 120.4375 C32.9125 120.4375 31.2625 120.4375 29.5625 120.4375 C29.34335938 119.42171875 29.12421875 118.4059375 28.8984375 117.359375 C25.42471219 101.97439385 19.79486441 88.0102712 5.875 79.1875 C4.12162515 78.23786581 2.34957345 77.32208858 0.5625 76.4375 C-0.80455078 75.73753906 -0.80455078 75.73753906 -2.19921875 75.0234375 C-11.53684472 70.64166571 -21.34634038 68.06998768 -31.31201172 65.50439453 C-41.89825746 62.66855673 -50.39132546 59.28896488 -56.28125 49.68359375 C-61.25564102 40.02050309 -61.71278802 29.72395145 -58.4375 19.4375 C-54.64374377 9.90865134 -49.19338325 2.13386877 -39.87890625 -2.53125 C-25.61946337 -8.55443867 -13.1901878 -8.06846594 0 0 Z " fill="#005FAF" transform="translate(107.4375,107.5625)"/>
<path d="M0 0 C0.66 0 1.32 0 2 0 C2.60457031 0.77601563 3.20914063 1.55203125 3.83203125 2.3515625 C9.73143676 9.55840383 21.6426849 11.05077521 30.25 13.375 C48.3492116 18.28892192 66.39490117 24.41469986 76.47265625 41.49609375 C79.93038542 48.44179461 81.1826205 55.32639248 82 63 C79.17578125 63.26171875 79.17578125 63.26171875 76 63 C74.41796875 61.20703125 74.41796875 61.20703125 73.1875 58.8125 C69.7756813 53.0961283 65.41455398 50.55578995 59.2265625 48.375 C52.5652188 47.25308948 46.24749949 48.32544139 39.6875 49.5 C27.4006661 51.52846439 16.65418759 52.69082864 5.70703125 45.4921875 C-0.12623508 40.78617526 -4.62737397 34.4794112 -6 27 C-6.60846462 17.22211512 -6.41957167 7.82385298 0 0 Z " fill="#005FAF" transform="translate(51,165)"/>
<path d="M0 0 C0.66 0 1.32 0 2 0 C2.6509259 1.24735567 3.29551669 2.49801832 3.9375 3.75 C4.47697266 4.79414063 4.47697266 4.79414063 5.02734375 5.859375 C8.46254875 13.41958519 8.36601011 24.14852015 6.12890625 32.09375 C2.09925599 40.65510531 -4.21005879 46.58168953 -13 50 C-20.98278236 52.52087864 -30.12145197 50.87637407 -38.1875 49.5 C-49.54202132 47.53320749 -49.54202132 47.53320749 -60.6875 49.875 C-61.59886719 50.22304687 -62.51023438 50.57109375 -63.44921875 50.9296875 C-67.92395654 52.57120928 -67.92395654 52.57120928 -71.125 55.8125 C-71.41375 56.534375 -71.7025 57.25625 -72 58 C-72.556875 59.36125 -72.556875 59.36125 -73.125 60.75 C-73.41375 61.4925 -73.7025 62.235 -74 63 C-75.98 63 -77.96 63 -80 63 C-80.985648 52.40428395 -76.64701534 42.60268422 -70.1796875 34.4296875 C-58.02499914 20.88091302 -40.33920394 16.65503378 -23.453125 11.89453125 C-10.88245056 8.72625614 -10.88245056 8.72625614 -1 1 C-0.67 0.67 -0.34 0.34 0 0 Z " fill="#005FAF" transform="translate(245,165)"/>
<path d="M0 0 C12.22222222 1.22222222 12.22222222 1.22222222 16 5 C16.35656325 10.34844869 16.35656325 10.34844869 15.02734375 12.77734375 C13.64232149 15.77383678 13.5720322 18.46613005 13.375 21.75 C13.30023438 22.92046875 13.22546875 24.0909375 13.1484375 25.296875 C13.07496094 26.63492187 13.07496094 26.63492187 13 28 C11.33388095 28.042721 9.66617115 28.04063832 8 28 C7 27 7 27 6.90234375 24.93359375 C6.91394531 24.10988281 6.92554687 23.28617187 6.9375 22.4375 C6.94652344 21.61121094 6.95554687 20.78492188 6.96484375 19.93359375 C6.97644531 19.29550781 6.98804687 18.65742188 7 18 C5.68 17.34 4.36 16.68 3 16 C2.67 18.97 2.34 21.94 2 25 C-1 26 -1 26 -5 25 C-3.35 16.75 -1.7 8.5 0 0 Z M5 6 C5 7.65 5 9.3 5 11 C5.99 11.33 6.98 11.66 8 12 C8.66 11.34 9.32 10.68 10 10 C9.6814823 7.89179203 9.6814823 7.89179203 9 6 C7.68 6 6.36 6 5 6 Z " fill="#0060AF" transform="translate(93,247)"/>
<path d="M0 0 C1.375 1.75 1.375 1.75 2 4 C1.814375 4.969375 1.62875 5.93875 1.4375 6.9375 C0.66231657 10.03310243 0.66231657 10.03310243 2.5 12.4375 C4 15 4 15 3.875 18.6875 C3 22 3 22 0 24 C-2.69921875 24.4140625 -2.69921875 24.4140625 -5.6875 24.625 C-7.17830078 24.73714844 -7.17830078 24.73714844 -8.69921875 24.8515625 C-9.45847656 24.90054687 -10.21773437 24.94953125 -11 25 C-12.74640116 16.69187796 -13.53007706 8.47097928 -14 0 C-4.17431193 -2.78287462 -4.17431193 -2.78287462 0 0 Z M-8 3 C-8 4.65 -8 6.3 -8 8 C-6.68 7.67 -5.36 7.34 -4 7 C-4.33 5.68 -4.66 4.36 -5 3 C-5.99 3 -6.98 3 -8 3 Z M-7 13 C-6.67 15.31 -6.34 17.62 -6 20 C-4.68 19.34 -3.36 18.68 -2 18 C-2.33 16.68 -2.66 15.36 -3 14 C-4.32 13.67 -5.64 13.34 -7 13 Z " fill="#005FAF" transform="translate(184,253)"/>
<path d="M0 0 C0.7734375 0.07605469 1.546875 0.15210938 2.34375 0.23046875 C4.92012778 0.92590406 5.92873443 1.66759779 7.5 3.8125 C7.6875 7.5 7.6875 7.5 7.5 10.8125 C5.85 10.8125 4.2 10.8125 2.5 10.8125 C2.231875 10.008125 1.96375 9.20375 1.6875 8.375 C1.295625 7.529375 0.90375 6.68375 0.5 5.8125 C-0.49 5.4825 -1.48 5.1525 -2.5 4.8125 C-3.03251766 6.72595327 -3.55059483 8.6434295 -4.0625 10.5625 C-4.35253906 11.62984375 -4.64257812 12.6971875 -4.94140625 13.796875 C-5.47098494 16.65585927 -5.48370862 18.12847383 -4.5 20.8125 C-3.18 19.4925 -1.86 18.1725 -0.5 16.8125 C-1.49 16.8125 -2.48 16.8125 -3.5 16.8125 C-3.17 15.1625 -2.84 13.5125 -2.5 11.8125 C-0.19 12.1425 2.12 12.4725 4.5 12.8125 C5.58056059 16.78409686 5.35815614 19.23803157 4.0625 23.125 C3.77503906 24.00800781 3.48757812 24.89101563 3.19140625 25.80078125 C2.96324219 26.46464844 2.73507813 27.12851562 2.5 27.8125 C-7.39029335 26.6700006 -7.39029335 26.6700006 -11.25 23.6875 C-14.09532261 17.14325799 -10.87834446 10.4804186 -8.6328125 4.1328125 C-6.61733542 0.00455945 -4.23208339 -0.48668959 0 0 Z " fill="#005EB0" transform="translate(78.5,242.1875)"/>
<path d="M0 0 C1.98 0 3.96 0 6 0 C5.34 6.6 4.68 13.2 4 20 C4.99 20.33 5.98 20.66 7 21 C8.77874156 14.39324562 9.9413873 7.75710231 11 1 C12.65 1 14.3 1 16 1 C17.38431335 4.89585328 16.78234666 8.33400491 16.25 12.375 C16.09015625 13.66148437 15.9303125 14.94796875 15.765625 16.2734375 C14.99356486 20.03132204 14.07451406 22.77622463 12 26 C8.44341968 27.66668199 4.76141852 27.21060512 1.0625 26.1875 C-1 25 -1 25 -2 23 C-2.49360647 15.10229647 -1.93776081 7.66453605 0 0 Z " fill="#005FAF" transform="translate(116,251)"/>
<path d="M0 0 C2.00695291 3.45434314 4.00436779 6.9141063 6 10.375 C6.57234375 11.35984375 7.1446875 12.3446875 7.734375 13.359375 C8.27578125 14.30039062 8.8171875 15.24140625 9.375 16.2109375 C9.87773437 17.08024902 10.38046875 17.94956055 10.8984375 18.84521484 C12 21 12 21 12 23 C10.02 23.33 8.04 23.66 6 24 C5.34 22.35 4.68 20.7 4 19 C2.35 19.33 0.7 19.66 -1 20 C-0.67 21.98 -0.34 23.96 0 26 C-1.98 26.66 -3.96 27.32 -6 28 C-6.91122528 22.35652914 -7.29774046 16.77002113 -7.5625 11.0625 C-7.60568359 10.18787109 -7.64886719 9.31324219 -7.69335938 8.41210938 C-7.79846901 6.27488005 -7.89963985 4.13745762 -8 2 C-4.91190305 0.23537317 -3.76687864 0 0 0 Z M-2 9 C-2 10.98 -2 12.96 -2 15 C-1.01 14.67 -0.02 14.34 1 14 C0.34 12.35 -0.32 10.7 -1 9 C-1.33 9 -1.66 9 -2 9 Z " fill="#0060AF" transform="translate(221,243)"/>
<path d="M0 0 C2.0625 1.75 2.0625 1.75 3 4 C3 5.32 3 6.64 3 8 C0.125 8.1875 0.125 8.1875 -3 8 C-3.66 7.01 -4.32 6.02 -5 5 C-6.03038433 8.9414002 -5.87693282 11.83615152 -5.0625 15.8125 C-4.86785156 16.78832031 -4.67320312 17.76414062 -4.47265625 18.76953125 C-4.31667969 19.50558594 -4.16070312 20.24164063 -4 21 C-3.01 20.67 -2.02 20.34 -1 20 C-1 18.35 -1 16.7 -1 15 C0.98 14.67 2.96 14.34 5 14 C5.61538462 22.15384615 5.61538462 22.15384615 3.5 25.0625 C-0.29794532 26.4867295 -2.93461918 26.45170898 -7 26 C-10.28412259 23.26323118 -11.34158016 19.12609767 -12 15 C-12.8113678 4.20041482 -12.8113678 4.20041482 -10.76171875 1.16796875 C-7.46889592 -1.01507787 -3.78346533 -0.64114589 0 0 Z " fill="#005FAE" transform="translate(204,248)"/>
<path d="M0 0 C2.12563103 0.11376617 4.2505261 0.24135631 6.375 0.375 C8.15003906 0.47941406 8.15003906 0.47941406 9.9609375 0.5859375 C13 1 13 1 15 3 C15.70320889 7.23560704 15.73891641 10.86320552 13.375 14.5 C10.56404634 16.27533915 8.28902165 16.70099803 5 17 C4.67 19.97 4.34 22.94 4 26 C2.33388095 26.042721 0.66617115 26.04063832 -1 26 C-2 25 -2 25 -2.03759766 22.91455078 C-1.99683105 22.01720215 -1.95606445 21.11985352 -1.9140625 20.1953125 C-1.87023437 19.21949219 -1.82640625 18.24367188 -1.78125 17.23828125 C-1.7296875 16.21089844 -1.678125 15.18351562 -1.625 14.125 C-1.58117187 13.10535156 -1.53734375 12.08570313 -1.4921875 11.03515625 C-1.12950029 3.38850086 -1.12950029 3.38850086 0 0 Z M5 5 C5 6.98 5 8.96 5 11 C6.32 11 7.64 11 9 11 C9.33 9.35 9.66 7.7 10 6 C8.35 5.67 6.7 5.34 5 5 Z " fill="#005FAF" transform="translate(139,253)"/>
</svg>
