<?xml version="1.0" encoding="UTF-8"?>
<svg version="1.1" xmlns="http://www.w3.org/2000/svg" width="120" height="31">
<path d="M0 0 C39.6 0 79.2 0 120 0 C120 10.23 120 20.46 120 31 C80.4 31 40.8 31 0 31 C0 20.77 0 10.54 0 0 Z " fill="#FEFEFE" transform="translate(0,0)"/>
<path d="M0 0 C3.43403788 2.00011167 6.21175747 4.42351494 8 8 C8.54317573 12.9509132 8.52241949 16.89488185 6.375 21.4375 C3.1903226 24.8735993 0.60866075 26.88938541 -4.2109375 27.09375 C-9.24859041 26.75902223 -12.43138789 25.78489163 -16 22 C-18.67644413 17.52338526 -18.91964266 13.08141538 -18 8 C-13.67309806 0.62037582 -8.34374189 -1.35741473 0 0 Z " fill="#08B0D7" transform="translate(18,2)"/>
<path d="M0 0 C12.1875 -0.40178571 12.1875 -0.40178571 17 3 C17.4021875 2.51273438 17.804375 2.02546875 18.21875 1.5234375 C20.4517553 -0.38636966 21.59825803 -0.40401742 24.5 -0.375 C25.2734375 -0.38273438 26.046875 -0.39046875 26.84375 -0.3984375 C29 0 29 0 30.76953125 1.13671875 C32.55837413 3.84553797 32.29096909 5.9799583 32.1875 9.1875 C32.14689453 10.81751953 32.14689453 10.81751953 32.10546875 12.48046875 C32.07066406 13.31191406 32.03585938 14.14335937 32 15 C30.08700862 15.27672202 28.16922064 15.52042815 26.25 15.75 C24.64898437 15.95882813 24.64898437 15.95882813 23.015625 16.171875 C20 16 20 16 17.609375 14.015625 C16.81273437 13.01789062 16.81273437 13.01789062 16 12 C15.278125 12.66 14.55625 13.32 13.8125 14 C10.78402067 16.1535853 9.60296594 16.41176754 6 16 C5.67 17.98 5.34 19.96 5 22 C3.35 22 1.7 22 0 22 C0 14.74 0 7.48 0 0 Z " fill="#030303" transform="translate(69,6)"/>
<path d="M0 0 C1.74023438 0.08701172 1.74023438 0.08701172 3.515625 0.17578125 C5.27132812 0.24345703 5.27132812 0.24345703 7.0625 0.3125 C8.40054688 0.39951172 8.40054688 0.39951172 9.765625 0.48828125 C9.87368644 3.40594016 9.95295377 6.3195925 10.015625 9.23828125 C10.06589844 10.47578125 10.06589844 10.47578125 10.1171875 11.73828125 C10.215574 17.83824431 10.215574 17.83824431 8 21.0390625 C4.56264038 23.26853876 1.72809479 23.19470517 -2.234375 22.48828125 C-4.734375 20.98828125 -4.734375 20.98828125 -6.234375 19.48828125 C-6.028125 18.72515625 -5.821875 17.96203125 -5.609375 17.17578125 C-4.90046297 14.26942181 -4.90046297 14.26942181 -7.234375 11.48828125 C-7.71488441 7.80437574 -7.55480379 6.0236318 -5.6328125 2.8125 C-3.234375 0.48828125 -3.234375 0.48828125 0 0 Z " fill="#0B0B0B" transform="translate(39.234375,5.51171875)"/>
<path d="M0 0 C2.1640625 0.33984375 2.1640625 0.33984375 4.7265625 1.83984375 C6.75669287 5.37050526 7.10014139 8.36761334 6.1640625 12.33984375 C3.57439323 15.38651348 2.06547886 16.22946624 -1.8984375 16.71484375 C-5.64348201 16.23675296 -7.79635715 15.67644705 -10.1484375 12.65234375 C-11.15452699 9.26822457 -10.64036149 6.74317601 -9.8359375 3.33984375 C-7.04227431 -0.36218846 -4.37509203 -0.17813893 0 0 Z " fill="#060606" transform="translate(60.8359375,5.66015625)"/>
<path d="M0 0 C0.79148437 -0.02578125 1.58296875 -0.0515625 2.3984375 -0.078125 C4.625 0.25 4.625 0.25 6.40234375 1.37890625 C8.17679946 4.0944471 7.91593143 6.23112572 7.8125 9.4375 C7.78542969 10.52417969 7.75835937 11.61085938 7.73046875 12.73046875 C7.69566406 13.56191406 7.66085938 14.39335937 7.625 15.25 C5.68994977 15.49900646 3.75174066 15.72356242 1.8125 15.9375 C0.73355469 16.06511719 -0.34539062 16.19273438 -1.45703125 16.32421875 C-4.375 16.25 -4.375 16.25 -6.20703125 14.98046875 C-8.12668289 12.1363026 -8.25833814 9.63319396 -8.375 6.25 C-6.11440595 1.52330335 -5.14072607 0.09981992 0 0 Z " fill="#1F1F1F" transform="translate(93.375,5.75)"/>
<path d="M0 0 C1.98 0 3.96 0 6 0 C6.99 2.31 7.98 4.62 9 7 C10.32 4.69 11.64 2.38 13 0 C14.98 0 16.96 0 19 0 C17.70987466 2.91735083 16.41762888 5.83375768 15.125 8.75 C14.76019531 9.575 14.39539063 10.4 14.01953125 11.25 C13.66503906 12.04921875 13.31054688 12.8484375 12.9453125 13.671875 C12.45828857 14.77160645 12.45828857 14.77160645 11.96142578 15.89355469 C11.0206529 17.95475033 10.02594567 19.98004472 9 22 C7.02 22 5.04 22 3 22 C3.350625 21.13375 3.70125 20.2675 4.0625 19.375 C5.76922339 13.23079581 3.75606242 9.08942423 0.83984375 3.734375 C0 2 0 2 0 0 Z " fill="#080808" transform="translate(101,6)"/>
<path d="M0 0 C2.01822917 0.06510417 4.03645833 0.13020833 6.0546875 0.1953125 C6.3846875 1.1853125 6.7146875 2.1753125 7.0546875 3.1953125 C8.0446875 3.8553125 9.0346875 4.5153125 10.0546875 5.1953125 C10.52583488 7.9380633 10.23274534 10.39090147 10.0546875 13.1953125 C9.0546875 14.1953125 9.0546875 14.1953125 6.3671875 14.328125 C5.2740625 14.32554688 4.1809375 14.32296875 3.0546875 14.3203125 C1.9615625 14.32289062 0.8684375 14.32546875 -0.2578125 14.328125 C-2.9453125 14.1953125 -2.9453125 14.1953125 -3.9453125 13.1953125 C-4.07019008 11.38603969 -4.12102096 9.57135143 -4.1328125 7.7578125 C-4.14699219 6.76910156 -4.16117187 5.78039062 -4.17578125 4.76171875 C-3.89599068 1.64608478 -3.25623197 0.32693092 0 0 Z " fill="#F2FBFD" transform="translate(9.9453125,7.8046875)"/>
<path d="M0 0 C2.125 0.375 2.125 0.375 4 1 C4.38218767 2.65614657 4.71395102 4.32457024 5 6 C4 7 4 7 1.4375 7.0625 C0.2309375 7.0315625 0.2309375 7.0315625 -1 7 C-1.625 4.625 -1.625 4.625 -2 2 C-1.34 1.34 -0.68 0.68 0 0 Z " fill="#FCFCFC" transform="translate(39,10)"/>
<path d="M0 0 C0.625 1.875 0.625 1.875 1 4 C0.34 4.66 -0.32 5.32 -1 6 C-3.625 5.625 -3.625 5.625 -6 5 C-6 3.35 -6 1.7 -6 0 C-3.50907189 -1.24546405 -2.58919267 -0.7767578 0 0 Z " fill="#FDFDFD" transform="translate(80,11)"/>
<path d="M0 0 C2.1875 0.3125 2.1875 0.3125 4 1 C4 2.65 4 4.3 4 6 C2.35 6.33 0.7 6.66 -1 7 C-1.66 5.68 -2.32 4.36 -3 3 C-1.75 1.4375 -1.75 1.4375 0 0 Z " fill="#FFFFFF" transform="translate(58,10)"/>
</svg>
